<?xml version="1.0" encoding="utf-8" standalone="no"?>
<!DOCTYPE svg PUBLIC "-//W3C//DTD SVG 1.1//EN"
  "http://www.w3.org/Graphics/SVG/1.1/DTD/svg11.dtd">
<svg xmlns:xlink="http://www.w3.org/1999/xlink" width="578.944pt" height="611.480687pt" viewBox="0 0 578.944 611.480687" xmlns="http://www.w3.org/2000/svg" version="1.1">
 <metadata>
  <rdf:RDF xmlns:dc="http://purl.org/dc/elements/1.1/" xmlns:cc="http://creativecommons.org/ns#" xmlns:rdf="http://www.w3.org/1999/02/22-rdf-syntax-ns#">
   <cc:Work>
    <dc:type rdf:resource="http://purl.org/dc/dcmitype/StillImage"/>
    <dc:date>2026-07-04T18:07:12.903447</dc:date>
    <dc:format>image/svg+xml</dc:format>
    <dc:creator>
     <cc:Agent>
      <dc:title>Matplotlib v3.10.9, https://matplotlib.org/</dc:title>
     </cc:Agent>
    </dc:creator>
   </cc:Work>
  </rdf:RDF>
 </metadata>
 <defs>
  <style type="text/css">*{stroke-linejoin: round; stroke-linecap: butt}</style>
 </defs>
 <g id="figure_1">
  <g id="patch_1">
   <path d="M -0 611.480687 
L 578.944 611.480687 
L 578.944 0 
L -0 0 
z
" style="fill: #ffffff"/>
  </g>
  <g id="axes_1">
   <g id="patch_2">
    <path d="M 289.472 320.01113 
Q 289.472 251.929995 289.472 183.84886 
" clip-path="url(#p48ee57b2e7)" style="fill: none; opacity: 0.9; stroke: #fcd0a8; stroke-width: 2.65; stroke-linecap: round"/>
   </g>
   <g id="patch_3">
    <path d="M 290.551961 320.328235 
Q 327.359402 263.05474 364.166842 205.781244 
" clip-path="url(#p48ee57b2e7)" style="fill: none; opacity: 0.9; stroke: #fae9d4; stroke-width: 1.75; stroke-linecap: round"/>
   </g>
   <g id="patch_4">
    <path d="M 291.289042 321.178872 
Q 353.217821 292.896947 415.1466 264.615021 
" clip-path="url(#p48ee57b2e7)" style="fill: none; opacity: 0.9; stroke: #faead7; stroke-width: 1.675; stroke-linecap: round"/>
   </g>
   <g id="patch_5">
    <path d="M 291.449225 322.29297 
Q 358.837393 331.981925 426.22556 341.670881 
" clip-path="url(#p48ee57b2e7)" style="fill: none; opacity: 0.9; stroke: #fcdcbb; stroke-width: 2.35; stroke-linecap: round"/>
   </g>
   <g id="patch_6">
    <path d="M 290.981653 323.316809 
Q 342.433942 367.900472 393.886231 412.484134 
" clip-path="url(#p48ee57b2e7)" style="fill: none; opacity: 0.9; stroke: #fae9d4; stroke-width: 1.75; stroke-linecap: round"/>
   </g>
   <g id="patch_7">
    <path d="M 290.034777 323.92533 
Q 309.215449 389.248701 328.396122 454.572072 
" clip-path="url(#p48ee57b2e7)" style="fill: none; opacity: 0.9; stroke: #fae9d4; stroke-width: 1.75; stroke-linecap: round"/>
   </g>
   <g id="patch_8">
    <path d="M 288.909223 323.92533 
Q 269.728551 389.248701 250.547878 454.572072 
" clip-path="url(#p48ee57b2e7)" style="fill: none; opacity: 0.9; stroke: #fae9d4; stroke-width: 1.75; stroke-linecap: round"/>
   </g>
   <g id="patch_9">
    <path d="M 287.962347 323.316809 
Q 236.510058 367.900472 185.057769 412.484134 
" clip-path="url(#p48ee57b2e7)" style="fill: none; opacity: 0.9; stroke: #fae9d4; stroke-width: 1.75; stroke-linecap: round"/>
   </g>
   <g id="patch_10">
    <path d="M 287.494775 322.29297 
Q 220.106607 331.981925 152.71844 341.670881 
" clip-path="url(#p48ee57b2e7)" style="fill: none; opacity: 0.9; stroke: #a63603; stroke-width: 5.8; stroke-linecap: round"/>
   </g>
   <g id="patch_11">
    <path d="M 287.654958 321.178872 
Q 225.726179 292.896947 163.7974 264.615021 
" clip-path="url(#p48ee57b2e7)" style="fill: none; opacity: 0.9; stroke: #fcdebf; stroke-width: 2.275; stroke-linecap: round"/>
   </g>
   <g id="patch_12">
    <path d="M 288.392039 320.328235 
Q 251.584598 263.05474 214.777158 205.781244 
" clip-path="url(#p48ee57b2e7)" style="fill: none; opacity: 0.9; stroke: #fcdebf; stroke-width: 2.275; stroke-linecap: round"/>
   </g>
   <g id="text_1">
    <g id="patch_13">
     <path d="M 289.472 247.949174 
C 291.514603 247.949174 293.47382 247.137639 294.918159 245.693301 
C 296.362497 244.248963 297.174031 242.289745 297.174031 240.247143 
C 297.174031 238.20454 296.362497 236.245322 294.918159 234.800984 
C 293.47382 233.356646 291.514603 232.545111 289.472 232.545111 
C 287.429397 232.545111 285.47018 233.356646 284.025841 234.800984 
C 282.581503 236.245322 281.769969 238.20454 281.769969 240.247143 
C 281.769969 242.289745 282.581503 244.248963 284.025841 245.693301 
C 285.47018 247.137639 287.429397 247.949174 289.472 247.949174 
z
" style="fill: #ffffff; stroke: #fcd0a8; stroke-linejoin: miter"/>
    </g>
    <!-- 14 -->
    <g style="fill: #fcd0a8" transform="translate(283.209969 242.73058) scale(0.09 -0.09)">
     <defs>
      <path id="DejaVuSans-Bold-31" d="M 750 831 
L 1813 831 
L 1813 3847 
L 722 3622 
L 722 4441 
L 1806 4666 
L 2950 4666 
L 2950 831 
L 4013 831 
L 4013 0 
L 750 0 
L 750 831 
z
" transform="scale(0.015625)"/>
      <path id="DejaVuSans-Bold-34" d="M 2356 3675 
L 1038 1722 
L 2356 1722 
L 2356 3675 
z
M 2156 4666 
L 3494 4666 
L 3494 1722 
L 4159 1722 
L 4159 850 
L 3494 850 
L 3494 0 
L 2356 0 
L 2356 850 
L 288 850 
L 288 1881 
L 2156 4666 
z
" transform="scale(0.015625)"/>
     </defs>
     <use xlink:href="#DejaVuSans-Bold-31"/>
     <use xlink:href="#DejaVuSans-Bold-34" transform="translate(69.580078 0)"/>
    </g>
   </g>
   <g id="text_2">
    <g id="patch_14">
     <path d="M 333.675628 259.021655 
C 335.212522 259.021655 336.686675 258.411041 337.773423 257.324293 
C 338.86017 256.237546 339.470785 254.763392 339.470785 253.226499 
C 339.470785 251.689606 338.86017 250.215453 337.773423 249.128705 
C 336.686675 248.041957 335.212522 247.431343 333.675628 247.431343 
C 332.138735 247.431343 330.664582 248.041957 329.577834 249.128705 
C 328.491086 250.215453 327.880472 251.689606 327.880472 253.226499 
C 327.880472 254.763392 328.491086 256.237546 329.577834 257.324293 
C 330.664582 258.411041 332.138735 259.021655 333.675628 259.021655 
z
" style="fill: #ffffff; stroke: #fae9d4; stroke-linejoin: miter"/>
    </g>
    <!-- 2 -->
    <g style="fill: #fae9d4" transform="translate(330.544613 255.709937) scale(0.09 -0.09)">
     <defs>
      <path id="DejaVuSans-Bold-32" d="M 1844 884 
L 3897 884 
L 3897 0 
L 506 0 
L 506 884 
L 2209 2388 
Q 2438 2594 2547 2791 
Q 2656 2988 2656 3200 
Q 2656 3528 2436 3728 
Q 2216 3928 1850 3928 
Q 1569 3928 1234 3808 
Q 900 3688 519 3450 
L 519 4475 
Q 925 4609 1322 4679 
Q 1719 4750 2100 4750 
Q 2938 4750 3402 4381 
Q 3866 4013 3866 3353 
Q 3866 2972 3669 2642 
Q 3472 2313 2841 1759 
L 1844 884 
z
" transform="scale(0.015625)"/>
     </defs>
     <use xlink:href="#DejaVuSans-Bold-32"/>
    </g>
   </g>
   <g id="text_3">
    <g id="patch_15">
     <path d="M 363.844917 293.838871 
C 365.381811 293.838871 366.855964 293.228256 367.942711 292.141509 
C 369.029459 291.054761 369.640073 289.580608 369.640073 288.043714 
C 369.640073 286.506821 369.029459 285.032668 367.942711 283.94592 
C 366.855964 282.859172 365.381811 282.248558 363.844917 282.248558 
C 362.308024 282.248558 360.833871 282.859172 359.747123 283.94592 
C 358.660375 285.032668 358.049761 286.506821 358.049761 288.043714 
C 358.049761 289.580608 358.660375 291.054761 359.747123 292.141509 
C 360.833871 293.228256 362.308024 293.838871 363.844917 293.838871 
z
" style="fill: #ffffff; stroke: #faead7; stroke-linejoin: miter"/>
    </g>
    <!-- 1 -->
    <g style="fill: #faead7" transform="translate(360.713902 290.527152) scale(0.09 -0.09)">
     <use xlink:href="#DejaVuSans-Bold-31"/>
    </g>
   </g>
   <g id="text_4">
    <g id="patch_16">
     <path d="M 370.40133 341.3466 
C 372.443933 341.3466 374.403151 340.535065 375.847489 339.090727 
C 377.291827 337.646389 378.103361 335.687171 378.103361 333.644569 
C 378.103361 331.601966 377.291827 329.642748 375.847489 328.19841 
C 374.403151 326.754072 372.443933 325.942537 370.40133 325.942537 
C 368.358728 325.942537 366.39951 326.754072 364.955172 328.19841 
C 363.510834 329.642748 362.699299 331.601966 362.699299 333.644569 
C 362.699299 335.687171 363.510834 337.646389 364.955172 339.090727 
C 366.39951 340.535065 368.358728 341.3466 370.40133 341.3466 
z
" style="fill: #ffffff; stroke: #fcdcbb; stroke-linejoin: miter"/>
    </g>
    <!-- 10 -->
    <g style="fill: #fcdcbb" transform="translate(364.139299 336.128006) scale(0.09 -0.09)">
     <defs>
      <path id="DejaVuSans-Bold-30" d="M 2944 2338 
Q 2944 3213 2780 3570 
Q 2616 3928 2228 3928 
Q 1841 3928 1675 3570 
Q 1509 3213 1509 2338 
Q 1509 1453 1675 1090 
Q 1841 728 2228 728 
Q 2613 728 2778 1090 
Q 2944 1453 2944 2338 
z
M 4147 2328 
Q 4147 1169 3647 539 
Q 3147 -91 2228 -91 
Q 1306 -91 806 539 
Q 306 1169 306 2328 
Q 306 3491 806 4120 
Q 1306 4750 2228 4750 
Q 3147 4750 3647 4120 
Q 4147 3491 4147 2328 
z
" transform="scale(0.015625)"/>
     </defs>
     <use xlink:href="#DejaVuSans-Bold-31"/>
     <use xlink:href="#DejaVuSans-Bold-30" transform="translate(69.580078 0)"/>
    </g>
   </g>
   <g id="text_5">
    <g id="patch_17">
     <path d="M 351.263253 381.346269 
C 352.800146 381.346269 354.274299 380.735655 355.361047 379.648907 
C 356.447795 378.562159 357.058409 377.088006 357.058409 375.551113 
C 357.058409 374.014219 356.447795 372.540066 355.361047 371.453318 
C 354.274299 370.366571 352.800146 369.755957 351.263253 369.755957 
C 349.726359 369.755957 348.252206 370.366571 347.165458 371.453318 
C 346.078711 372.540066 345.468096 374.014219 345.468096 375.551113 
C 345.468096 377.088006 346.078711 378.562159 347.165458 379.648907 
C 348.252206 380.735655 349.726359 381.346269 351.263253 381.346269 
z
" style="fill: #ffffff; stroke: #fae9d4; stroke-linejoin: miter"/>
    </g>
    <!-- 2 -->
    <g style="fill: #fae9d4" transform="translate(348.132237 378.03455) scale(0.09 -0.09)">
     <use xlink:href="#DejaVuSans-Bold-32"/>
    </g>
   </g>
   <g id="text_6">
    <g id="patch_18">
     <path d="M 312.506889 406.253472 
C 314.043782 406.253472 315.517936 405.642857 316.604683 404.55611 
C 317.691431 403.469362 318.302045 401.995209 318.302045 400.458315 
C 318.302045 398.921422 317.691431 397.447269 316.604683 396.360521 
C 315.517936 395.273773 314.043782 394.663159 312.506889 394.663159 
C 310.969996 394.663159 309.495843 395.273773 308.409095 396.360521 
C 307.322347 397.447269 306.711733 398.921422 306.711733 400.458315 
C 306.711733 401.995209 307.322347 403.469362 308.409095 404.55611 
C 309.495843 405.642857 310.969996 406.253472 312.506889 406.253472 
z
" style="fill: #ffffff; stroke: #fae9d4; stroke-linejoin: miter"/>
    </g>
    <!-- 2 -->
    <g style="fill: #fae9d4" transform="translate(309.375873 402.941753) scale(0.09 -0.09)">
     <use xlink:href="#DejaVuSans-Bold-32"/>
    </g>
   </g>
   <g id="text_7">
    <g id="patch_19">
     <path d="M 266.437111 406.253472 
C 267.974004 406.253472 269.448157 405.642857 270.534905 404.55611 
C 271.621653 403.469362 272.232267 401.995209 272.232267 400.458315 
C 272.232267 398.921422 271.621653 397.447269 270.534905 396.360521 
C 269.448157 395.273773 267.974004 394.663159 266.437111 394.663159 
C 264.900218 394.663159 263.426064 395.273773 262.339317 396.360521 
C 261.252569 397.447269 260.641955 398.921422 260.641955 400.458315 
C 260.641955 401.995209 261.252569 403.469362 262.339317 404.55611 
C 263.426064 405.642857 264.900218 406.253472 266.437111 406.253472 
z
" style="fill: #ffffff; stroke: #fae9d4; stroke-linejoin: miter"/>
    </g>
    <!-- 2 -->
    <g style="fill: #fae9d4" transform="translate(263.306095 402.941753) scale(0.09 -0.09)">
     <use xlink:href="#DejaVuSans-Bold-32"/>
    </g>
   </g>
   <g id="text_8">
    <g id="patch_20">
     <path d="M 227.680747 381.346269 
C 229.217641 381.346269 230.691794 380.735655 231.778542 379.648907 
C 232.865289 378.562159 233.475904 377.088006 233.475904 375.551113 
C 233.475904 374.014219 232.865289 372.540066 231.778542 371.453318 
C 230.691794 370.366571 229.217641 369.755957 227.680747 369.755957 
C 226.143854 369.755957 224.669701 370.366571 223.582953 371.453318 
C 222.496205 372.540066 221.885591 374.014219 221.885591 375.551113 
C 221.885591 377.088006 222.496205 378.562159 223.582953 379.648907 
C 224.669701 380.735655 226.143854 381.346269 227.680747 381.346269 
z
" style="fill: #ffffff; stroke: #fae9d4; stroke-linejoin: miter"/>
    </g>
    <!-- 2 -->
    <g style="fill: #fae9d4" transform="translate(224.549732 378.03455) scale(0.09 -0.09)">
     <use xlink:href="#DejaVuSans-Bold-32"/>
    </g>
   </g>
   <g id="text_9">
    <g id="patch_21">
     <path d="M 208.54267 341.3466 
C 210.585272 341.3466 212.54449 340.535065 213.988828 339.090727 
C 215.433166 337.646389 216.244701 335.687171 216.244701 333.644569 
C 216.244701 331.601966 215.433166 329.642748 213.988828 328.19841 
C 212.54449 326.754072 210.585272 325.942537 208.54267 325.942537 
C 206.500067 325.942537 204.540849 326.754072 203.096511 328.19841 
C 201.652173 329.642748 200.840639 331.601966 200.840639 333.644569 
C 200.840639 335.687171 201.652173 337.646389 203.096511 339.090727 
C 204.540849 340.535065 206.500067 341.3466 208.54267 341.3466 
z
" style="fill: #ffffff; stroke: #a63603; stroke-linejoin: miter"/>
    </g>
    <!-- 56 -->
    <g style="fill: #a63603" transform="translate(202.280639 336.128006) scale(0.09 -0.09)">
     <defs>
      <path id="DejaVuSans-Bold-35" d="M 678 4666 
L 3669 4666 
L 3669 3781 
L 1638 3781 
L 1638 3059 
Q 1775 3097 1914 3117 
Q 2053 3138 2203 3138 
Q 3056 3138 3531 2711 
Q 4006 2284 4006 1522 
Q 4006 766 3489 337 
Q 2972 -91 2053 -91 
Q 1656 -91 1267 -14 
Q 878 63 494 219 
L 494 1166 
Q 875 947 1217 837 
Q 1559 728 1863 728 
Q 2300 728 2551 942 
Q 2803 1156 2803 1522 
Q 2803 1891 2551 2103 
Q 2300 2316 1863 2316 
Q 1603 2316 1309 2248 
Q 1016 2181 678 2041 
L 678 4666 
z
" transform="scale(0.015625)"/>
      <path id="DejaVuSans-Bold-36" d="M 2316 2303 
Q 2000 2303 1842 2098 
Q 1684 1894 1684 1484 
Q 1684 1075 1842 870 
Q 2000 666 2316 666 
Q 2634 666 2792 870 
Q 2950 1075 2950 1484 
Q 2950 1894 2792 2098 
Q 2634 2303 2316 2303 
z
M 3803 4544 
L 3803 3681 
Q 3506 3822 3243 3889 
Q 2981 3956 2731 3956 
Q 2194 3956 1894 3657 
Q 1594 3359 1544 2772 
Q 1750 2925 1990 3001 
Q 2231 3078 2516 3078 
Q 3231 3078 3670 2659 
Q 4109 2241 4109 1563 
Q 4109 813 3618 361 
Q 3128 -91 2303 -91 
Q 1394 -91 895 523 
Q 397 1138 397 2266 
Q 397 3422 980 4083 
Q 1563 4744 2578 4744 
Q 2900 4744 3203 4694 
Q 3506 4644 3803 4544 
z
" transform="scale(0.015625)"/>
     </defs>
     <use xlink:href="#DejaVuSans-Bold-35"/>
     <use xlink:href="#DejaVuSans-Bold-36" transform="translate(69.580078 0)"/>
    </g>
   </g>
   <g id="text_10">
    <g id="patch_22">
     <path d="M 215.099083 293.838871 
C 216.635976 293.838871 218.110129 293.228256 219.196877 292.141509 
C 220.283625 291.054761 220.894239 289.580608 220.894239 288.043714 
C 220.894239 286.506821 220.283625 285.032668 219.196877 283.94592 
C 218.110129 282.859172 216.635976 282.248558 215.099083 282.248558 
C 213.562189 282.248558 212.088036 282.859172 211.001289 283.94592 
C 209.914541 285.032668 209.303927 286.506821 209.303927 288.043714 
C 209.303927 289.580608 209.914541 291.054761 211.001289 292.141509 
C 212.088036 293.228256 213.562189 293.838871 215.099083 293.838871 
z
" style="fill: #ffffff; stroke: #fcdebf; stroke-linejoin: miter"/>
    </g>
    <!-- 9 -->
    <g style="fill: #fcdebf" transform="translate(211.968067 290.527152) scale(0.09 -0.09)">
     <defs>
      <path id="DejaVuSans-Bold-39" d="M 641 103 
L 641 966 
Q 928 831 1190 764 
Q 1453 697 1709 697 
Q 2247 697 2547 995 
Q 2847 1294 2900 1881 
Q 2688 1725 2447 1647 
Q 2206 1569 1925 1569 
Q 1209 1569 770 1986 
Q 331 2403 331 3084 
Q 331 3838 820 4291 
Q 1309 4744 2131 4744 
Q 3044 4744 3544 4128 
Q 4044 3513 4044 2388 
Q 4044 1231 3459 570 
Q 2875 -91 1856 -91 
Q 1528 -91 1228 -42 
Q 928 6 641 103 
z
M 2125 2350 
Q 2441 2350 2600 2554 
Q 2759 2759 2759 3169 
Q 2759 3575 2600 3781 
Q 2441 3988 2125 3988 
Q 1809 3988 1650 3781 
Q 1491 3575 1491 3169 
Q 1491 2759 1650 2554 
Q 1809 2350 2125 2350 
z
" transform="scale(0.015625)"/>
     </defs>
     <use xlink:href="#DejaVuSans-Bold-39"/>
    </g>
   </g>
   <g id="text_11">
    <g id="patch_23">
     <path d="M 245.268372 259.021655 
C 246.805265 259.021655 248.279418 258.411041 249.366166 257.324293 
C 250.452914 256.237546 251.063528 254.763392 251.063528 253.226499 
C 251.063528 251.689606 250.452914 250.215453 249.366166 249.128705 
C 248.279418 248.041957 246.805265 247.431343 245.268372 247.431343 
C 243.731478 247.431343 242.257325 248.041957 241.170577 249.128705 
C 240.08383 250.215453 239.473215 251.689606 239.473215 253.226499 
C 239.473215 254.763392 240.08383 256.237546 241.170577 257.324293 
C 242.257325 258.411041 243.731478 259.021655 245.268372 259.021655 
z
" style="fill: #ffffff; stroke: #fcdebf; stroke-linejoin: miter"/>
    </g>
    <!-- 9 -->
    <g style="fill: #fcdebf" transform="translate(242.137356 255.709937) scale(0.09 -0.09)">
     <use xlink:href="#DejaVuSans-Bold-39"/>
    </g>
   </g>
   <g id="patch_24">
    <path d="M 289.472 155.565543 
C 296.957941 155.565543 304.138285 152.591347 309.431645 147.297987 
C 314.725004 142.004628 317.6992 134.824284 317.6992 127.338343 
C 317.6992 119.852402 314.725004 112.672058 309.431645 107.378698 
C 304.138285 102.085339 296.957941 99.111143 289.472 99.111143 
C 281.986059 99.111143 274.805715 102.085339 269.512355 107.378698 
C 264.218996 112.672058 261.2448 119.852402 261.2448 127.338343 
C 261.2448 134.824284 264.218996 142.004628 269.512355 147.297987 
C 274.805715 152.591347 281.986059 155.565543 289.472 155.565543 
z
" clip-path="url(#p48ee57b2e7)" style="fill: #ffffff; stroke: #fcd0a8; stroke-width: 2.2; stroke-linejoin: miter"/>
   </g>
   <g id="patch_25">
    <path d="M 394.718734 186.468772 
C 402.204675 186.468772 409.385019 183.494576 414.678379 178.201217 
C 419.971739 172.907857 422.945934 165.727513 422.945934 158.241572 
C 422.945934 150.755631 419.971739 143.575287 414.678379 138.281928 
C 409.385019 132.988568 402.204675 130.014372 394.718734 130.014372 
C 387.232793 130.014372 380.052449 132.988568 374.75909 138.281928 
C 369.46573 143.575287 366.491534 150.755631 366.491534 158.241572 
C 366.491534 165.727513 369.46573 172.907857 374.75909 178.201217 
C 380.052449 183.494576 387.232793 186.468772 394.718734 186.468772 
z
" clip-path="url(#p48ee57b2e7)" style="fill: #ffffff; stroke: #fae9d4; stroke-width: 2.2; stroke-linejoin: miter"/>
   </g>
   <g id="patch_26">
    <path d="M 466.550374 269.366904 
C 474.036315 269.366904 481.216659 266.392708 486.510019 261.099348 
C 491.803378 255.805989 494.777574 248.625645 494.777574 241.139704 
C 494.777574 233.653763 491.803378 226.473419 486.510019 221.180059 
C 481.216659 215.8867 474.036315 212.912504 466.550374 212.912504 
C 459.064433 212.912504 451.884089 215.8867 446.59073 221.180059 
C 441.29737 226.473419 438.323174 233.653763 438.323174 241.139704 
C 438.323174 248.625645 441.29737 255.805989 446.59073 261.099348 
C 451.884089 266.392708 459.064433 269.366904 466.550374 269.366904 
z
" clip-path="url(#p48ee57b2e7)" style="fill: #ffffff; stroke: #faead7; stroke-width: 2.2; stroke-linejoin: miter"/>
   </g>
   <g id="patch_27">
    <path d="M 482.160881 377.940366 
C 489.646822 377.940366 496.827166 374.96617 502.120526 369.672811 
C 507.413886 364.379451 510.388081 357.199107 510.388081 349.713166 
C 510.388081 342.227225 507.413886 335.046881 502.120526 329.753522 
C 496.827166 324.460162 489.646822 321.485966 482.160881 321.485966 
C 474.67494 321.485966 467.494596 324.460162 462.201237 329.753522 
C 456.907877 335.046881 453.933681 342.227225 453.933681 349.713166 
C 453.933681 357.199107 456.907877 364.379451 462.201237 369.672811 
C 467.494596 374.96617 474.67494 377.940366 482.160881 377.940366 
z
" clip-path="url(#p48ee57b2e7)" style="fill: #ffffff; stroke: #fcdcbb; stroke-width: 2.2; stroke-linejoin: miter"/>
   </g>
   <g id="patch_28">
    <path d="M 436.59403 477.717852 
C 444.079971 477.717852 451.260315 474.743657 456.553675 469.450297 
C 461.847034 464.156937 464.82123 456.976593 464.82123 449.490652 
C 464.82123 442.004711 461.847034 434.824367 456.553675 429.531008 
C 451.260315 424.237648 444.079971 421.263452 436.59403 421.263452 
C 429.108089 421.263452 421.927745 424.237648 416.634386 429.531008 
C 411.341026 434.824367 408.36683 442.004711 408.36683 449.490652 
C 408.36683 456.976593 411.341026 464.156937 416.634386 469.450297 
C 421.927745 474.743657 429.108089 477.717852 436.59403 477.717852 
z
" clip-path="url(#p48ee57b2e7)" style="fill: #ffffff; stroke: #fae9d4; stroke-width: 2.2; stroke-linejoin: miter"/>
   </g>
   <g id="patch_29">
    <path d="M 344.316974 537.020716 
C 351.802915 537.020716 358.983259 534.04652 364.276619 528.75316 
C 369.569978 523.4598 372.544174 516.279456 372.544174 508.793516 
C 372.544174 501.307575 369.569978 494.127231 364.276619 488.833871 
C 358.983259 483.540511 351.802915 480.566316 344.316974 480.566316 
C 336.831033 480.566316 329.650689 483.540511 324.357329 488.833871 
C 319.06397 494.127231 316.089774 501.307575 316.089774 508.793516 
C 316.089774 516.279456 319.06397 523.4598 324.357329 528.75316 
C 329.650689 534.04652 336.831033 537.020716 344.316974 537.020716 
z
" clip-path="url(#p48ee57b2e7)" style="fill: #ffffff; stroke: #fae9d4; stroke-width: 2.2; stroke-linejoin: miter"/>
   </g>
   <g id="patch_30">
    <path d="M 234.627026 537.020716 
C 242.112967 537.020716 249.293311 534.04652 254.586671 528.75316 
C 259.88003 523.4598 262.854226 516.279456 262.854226 508.793516 
C 262.854226 501.307575 259.88003 494.127231 254.586671 488.833871 
C 249.293311 483.540511 242.112967 480.566316 234.627026 480.566316 
C 227.141085 480.566316 219.960741 483.540511 214.667381 488.833871 
C 209.374022 494.127231 206.399826 501.307575 206.399826 508.793516 
C 206.399826 516.279456 209.374022 523.4598 214.667381 528.75316 
C 219.960741 534.04652 227.141085 537.020716 234.627026 537.020716 
z
" clip-path="url(#p48ee57b2e7)" style="fill: #ffffff; stroke: #fae9d4; stroke-width: 2.2; stroke-linejoin: miter"/>
   </g>
   <g id="patch_31">
    <path d="M 142.34997 477.717852 
C 149.835911 477.717852 157.016255 474.743657 162.309614 469.450297 
C 167.602974 464.156937 170.57717 456.976593 170.57717 449.490652 
C 170.57717 442.004711 167.602974 434.824367 162.309614 429.531008 
C 157.016255 424.237648 149.835911 421.263452 142.34997 421.263452 
C 134.864029 421.263452 127.683685 424.237648 122.390325 429.531008 
C 117.096966 434.824367 114.12277 442.004711 114.12277 449.490652 
C 114.12277 456.976593 117.096966 464.156937 122.390325 469.450297 
C 127.683685 474.743657 134.864029 477.717852 142.34997 477.717852 
z
" clip-path="url(#p48ee57b2e7)" style="fill: #ffffff; stroke: #fae9d4; stroke-width: 2.2; stroke-linejoin: miter"/>
   </g>
   <g id="patch_32">
    <path d="M 96.783119 377.940366 
C 104.26906 377.940366 111.449404 374.96617 116.742763 369.672811 
C 122.036123 364.379451 125.010319 357.199107 125.010319 349.713166 
C 125.010319 342.227225 122.036123 335.046881 116.742763 329.753522 
C 111.449404 324.460162 104.26906 321.485966 96.783119 321.485966 
C 89.297178 321.485966 82.116834 324.460162 76.823474 329.753522 
C 71.530114 335.046881 68.555919 342.227225 68.555919 349.713166 
C 68.555919 357.199107 71.530114 364.379451 76.823474 369.672811 
C 82.116834 374.96617 89.297178 377.940366 96.783119 377.940366 
z
" clip-path="url(#p48ee57b2e7)" style="fill: #ffffff; stroke: #a63603; stroke-width: 2.2; stroke-linejoin: miter"/>
   </g>
   <g id="patch_33">
    <path d="M 112.393626 269.366904 
C 119.879567 269.366904 127.059911 266.392708 132.35327 261.099348 
C 137.64663 255.805989 140.620826 248.625645 140.620826 241.139704 
C 140.620826 233.653763 137.64663 226.473419 132.35327 221.180059 
C 127.059911 215.8867 119.879567 212.912504 112.393626 212.912504 
C 104.907685 212.912504 97.727341 215.8867 92.433981 221.180059 
C 87.140622 226.473419 84.166426 233.653763 84.166426 241.139704 
C 84.166426 248.625645 87.140622 255.805989 92.433981 261.099348 
C 97.727341 266.392708 104.907685 269.366904 112.393626 269.366904 
z
" clip-path="url(#p48ee57b2e7)" style="fill: #ffffff; stroke: #fcdebf; stroke-width: 2.2; stroke-linejoin: miter"/>
   </g>
   <g id="patch_34">
    <path d="M 184.225266 186.468772 
C 191.711207 186.468772 198.891551 183.494576 204.18491 178.201217 
C 209.47827 172.907857 212.452466 165.727513 212.452466 158.241572 
C 212.452466 150.755631 209.47827 143.575287 204.18491 138.281928 
C 198.891551 132.988568 191.711207 130.014372 184.225266 130.014372 
C 176.739325 130.014372 169.558981 132.988568 164.265621 138.281928 
C 158.972261 143.575287 155.998066 150.755631 155.998066 158.241572 
C 155.998066 165.727513 158.972261 172.907857 164.265621 178.201217 
C 169.558981 183.494576 176.739325 186.468772 184.225266 186.468772 
z
" clip-path="url(#p48ee57b2e7)" style="fill: #ffffff; stroke: #fcdebf; stroke-width: 2.2; stroke-linejoin: miter"/>
   </g>
   <g id="text_12">
    <!-- Jazz lead sheet (Sweet Georgia Brown) — one analysis, every encoding -->
    <g transform="translate(29.5695 17.077969) scale(0.13 -0.13)">
     <defs>
      <path id="DejaVuSans-Bold-4a" d="M 588 4666 
L 1791 4666 
L 1791 453 
Q 1791 -419 1317 -850 
Q 844 -1281 -116 -1281 
L -359 -1281 
L -359 -372 
L -172 -372 
Q 203 -372 395 -162 
Q 588 47 588 453 
L 588 4666 
z
" transform="scale(0.015625)"/>
      <path id="DejaVuSans-Bold-61" d="M 2106 1575 
Q 1756 1575 1579 1456 
Q 1403 1338 1403 1106 
Q 1403 894 1545 773 
Q 1688 653 1941 653 
Q 2256 653 2472 879 
Q 2688 1106 2688 1447 
L 2688 1575 
L 2106 1575 
z
M 3816 1997 
L 3816 0 
L 2688 0 
L 2688 519 
Q 2463 200 2181 54 
Q 1900 -91 1497 -91 
Q 953 -91 614 226 
Q 275 544 275 1050 
Q 275 1666 698 1953 
Q 1122 2241 2028 2241 
L 2688 2241 
L 2688 2328 
Q 2688 2594 2478 2717 
Q 2269 2841 1825 2841 
Q 1466 2841 1156 2769 
Q 847 2697 581 2553 
L 581 3406 
Q 941 3494 1303 3539 
Q 1666 3584 2028 3584 
Q 2975 3584 3395 3211 
Q 3816 2838 3816 1997 
z
" transform="scale(0.015625)"/>
      <path id="DejaVuSans-Bold-7a" d="M 366 3500 
L 3419 3500 
L 3419 2719 
L 1575 800 
L 3419 800 
L 3419 0 
L 288 0 
L 288 781 
L 2131 2700 
L 366 2700 
L 366 3500 
z
" transform="scale(0.015625)"/>
      <path id="DejaVuSans-Bold-20" transform="scale(0.015625)"/>
      <path id="DejaVuSans-Bold-6c" d="M 538 4863 
L 1656 4863 
L 1656 0 
L 538 0 
L 538 4863 
z
" transform="scale(0.015625)"/>
      <path id="DejaVuSans-Bold-65" d="M 4031 1759 
L 4031 1441 
L 1416 1441 
Q 1456 1047 1700 850 
Q 1944 653 2381 653 
Q 2734 653 3104 758 
Q 3475 863 3866 1075 
L 3866 213 
Q 3469 63 3072 -14 
Q 2675 -91 2278 -91 
Q 1328 -91 801 392 
Q 275 875 275 1747 
Q 275 2603 792 3093 
Q 1309 3584 2216 3584 
Q 3041 3584 3536 3087 
Q 4031 2591 4031 1759 
z
M 2881 2131 
Q 2881 2450 2695 2645 
Q 2509 2841 2209 2841 
Q 1884 2841 1681 2658 
Q 1478 2475 1428 2131 
L 2881 2131 
z
" transform="scale(0.015625)"/>
      <path id="DejaVuSans-Bold-64" d="M 2919 2988 
L 2919 4863 
L 4044 4863 
L 4044 0 
L 2919 0 
L 2919 506 
Q 2688 197 2409 53 
Q 2131 -91 1766 -91 
Q 1119 -91 703 423 
Q 288 938 288 1747 
Q 288 2556 703 3070 
Q 1119 3584 1766 3584 
Q 2128 3584 2408 3439 
Q 2688 3294 2919 2988 
z
M 2181 722 
Q 2541 722 2730 984 
Q 2919 1247 2919 1747 
Q 2919 2247 2730 2509 
Q 2541 2772 2181 2772 
Q 1825 2772 1636 2509 
Q 1447 2247 1447 1747 
Q 1447 1247 1636 984 
Q 1825 722 2181 722 
z
" transform="scale(0.015625)"/>
      <path id="DejaVuSans-Bold-73" d="M 3272 3391 
L 3272 2541 
Q 2913 2691 2578 2766 
Q 2244 2841 1947 2841 
Q 1628 2841 1473 2761 
Q 1319 2681 1319 2516 
Q 1319 2381 1436 2309 
Q 1553 2238 1856 2203 
L 2053 2175 
Q 2913 2066 3209 1816 
Q 3506 1566 3506 1031 
Q 3506 472 3093 190 
Q 2681 -91 1863 -91 
Q 1516 -91 1145 -36 
Q 775 19 384 128 
L 384 978 
Q 719 816 1070 734 
Q 1422 653 1784 653 
Q 2113 653 2278 743 
Q 2444 834 2444 1013 
Q 2444 1163 2330 1236 
Q 2216 1309 1875 1350 
L 1678 1375 
Q 931 1469 631 1722 
Q 331 1975 331 2491 
Q 331 3047 712 3315 
Q 1094 3584 1881 3584 
Q 2191 3584 2531 3537 
Q 2872 3491 3272 3391 
z
" transform="scale(0.015625)"/>
      <path id="DejaVuSans-Bold-68" d="M 4056 2131 
L 4056 0 
L 2931 0 
L 2931 347 
L 2931 1625 
Q 2931 2084 2911 2256 
Q 2891 2428 2841 2509 
Q 2775 2619 2662 2680 
Q 2550 2741 2406 2741 
Q 2056 2741 1856 2470 
Q 1656 2200 1656 1722 
L 1656 0 
L 538 0 
L 538 4863 
L 1656 4863 
L 1656 2988 
Q 1909 3294 2193 3439 
Q 2478 3584 2822 3584 
Q 3428 3584 3742 3212 
Q 4056 2841 4056 2131 
z
" transform="scale(0.015625)"/>
      <path id="DejaVuSans-Bold-74" d="M 1759 4494 
L 1759 3500 
L 2913 3500 
L 2913 2700 
L 1759 2700 
L 1759 1216 
Q 1759 972 1856 886 
Q 1953 800 2241 800 
L 2816 800 
L 2816 0 
L 1856 0 
Q 1194 0 917 276 
Q 641 553 641 1216 
L 641 2700 
L 84 2700 
L 84 3500 
L 641 3500 
L 641 4494 
L 1759 4494 
z
" transform="scale(0.015625)"/>
      <path id="DejaVuSans-Bold-28" d="M 2413 -844 
L 1484 -844 
Q 1006 -72 778 623 
Q 550 1319 550 2003 
Q 550 2688 779 3389 
Q 1009 4091 1484 4856 
L 2413 4856 
Q 2013 4116 1813 3408 
Q 1613 2700 1613 2009 
Q 1613 1319 1811 609 
Q 2009 -100 2413 -844 
z
" transform="scale(0.015625)"/>
      <path id="DejaVuSans-Bold-53" d="M 3834 4519 
L 3834 3531 
Q 3450 3703 3084 3790 
Q 2719 3878 2394 3878 
Q 1963 3878 1756 3759 
Q 1550 3641 1550 3391 
Q 1550 3203 1689 3098 
Q 1828 2994 2194 2919 
L 2706 2816 
Q 3484 2659 3812 2340 
Q 4141 2022 4141 1434 
Q 4141 663 3683 286 
Q 3225 -91 2284 -91 
Q 1841 -91 1394 -6 
Q 947 78 500 244 
L 500 1259 
Q 947 1022 1364 901 
Q 1781 781 2169 781 
Q 2563 781 2772 912 
Q 2981 1044 2981 1288 
Q 2981 1506 2839 1625 
Q 2697 1744 2272 1838 
L 1806 1941 
Q 1106 2091 782 2419 
Q 459 2747 459 3303 
Q 459 4000 909 4375 
Q 1359 4750 2203 4750 
Q 2588 4750 2994 4692 
Q 3400 4634 3834 4519 
z
" transform="scale(0.015625)"/>
      <path id="DejaVuSans-Bold-77" d="M 225 3500 
L 1313 3500 
L 1900 1088 
L 2491 3500 
L 3425 3500 
L 4013 1113 
L 4603 3500 
L 5691 3500 
L 4769 0 
L 3547 0 
L 2956 2406 
L 2369 0 
L 1147 0 
L 225 3500 
z
" transform="scale(0.015625)"/>
      <path id="DejaVuSans-Bold-47" d="M 4781 347 
Q 4331 128 3847 18 
Q 3363 -91 2847 -91 
Q 1681 -91 1000 561 
Q 319 1213 319 2328 
Q 319 3456 1012 4103 
Q 1706 4750 2913 4750 
Q 3378 4750 3804 4662 
Q 4231 4575 4609 4403 
L 4609 3438 
Q 4219 3659 3833 3768 
Q 3447 3878 3059 3878 
Q 2341 3878 1952 3476 
Q 1563 3075 1563 2328 
Q 1563 1588 1938 1184 
Q 2313 781 3003 781 
Q 3191 781 3352 804 
Q 3513 828 3641 878 
L 3641 1784 
L 2906 1784 
L 2906 2591 
L 4781 2591 
L 4781 347 
z
" transform="scale(0.015625)"/>
      <path id="DejaVuSans-Bold-6f" d="M 2203 2784 
Q 1831 2784 1636 2517 
Q 1441 2250 1441 1747 
Q 1441 1244 1636 976 
Q 1831 709 2203 709 
Q 2569 709 2762 976 
Q 2956 1244 2956 1747 
Q 2956 2250 2762 2517 
Q 2569 2784 2203 2784 
z
M 2203 3584 
Q 3106 3584 3614 3096 
Q 4122 2609 4122 1747 
Q 4122 884 3614 396 
Q 3106 -91 2203 -91 
Q 1297 -91 786 396 
Q 275 884 275 1747 
Q 275 2609 786 3096 
Q 1297 3584 2203 3584 
z
" transform="scale(0.015625)"/>
      <path id="DejaVuSans-Bold-72" d="M 3138 2547 
Q 2991 2616 2845 2648 
Q 2700 2681 2553 2681 
Q 2122 2681 1889 2404 
Q 1656 2128 1656 1613 
L 1656 0 
L 538 0 
L 538 3500 
L 1656 3500 
L 1656 2925 
Q 1872 3269 2151 3426 
Q 2431 3584 2822 3584 
Q 2878 3584 2943 3579 
Q 3009 3575 3134 3559 
L 3138 2547 
z
" transform="scale(0.015625)"/>
      <path id="DejaVuSans-Bold-67" d="M 2919 594 
Q 2688 288 2409 144 
Q 2131 0 1766 0 
Q 1125 0 706 504 
Q 288 1009 288 1791 
Q 288 2575 706 3076 
Q 1125 3578 1766 3578 
Q 2131 3578 2409 3434 
Q 2688 3291 2919 2981 
L 2919 3500 
L 4044 3500 
L 4044 353 
Q 4044 -491 3511 -936 
Q 2978 -1381 1966 -1381 
Q 1638 -1381 1331 -1331 
Q 1025 -1281 716 -1178 
L 716 -306 
Q 1009 -475 1290 -558 
Q 1572 -641 1856 -641 
Q 2406 -641 2662 -400 
Q 2919 -159 2919 353 
L 2919 594 
z
M 2181 2772 
Q 1834 2772 1640 2515 
Q 1447 2259 1447 1791 
Q 1447 1309 1634 1061 
Q 1822 813 2181 813 
Q 2531 813 2725 1069 
Q 2919 1325 2919 1791 
Q 2919 2259 2725 2515 
Q 2531 2772 2181 2772 
z
" transform="scale(0.015625)"/>
      <path id="DejaVuSans-Bold-69" d="M 538 3500 
L 1656 3500 
L 1656 0 
L 538 0 
L 538 3500 
z
M 538 4863 
L 1656 4863 
L 1656 3950 
L 538 3950 
L 538 4863 
z
" transform="scale(0.015625)"/>
      <path id="DejaVuSans-Bold-42" d="M 2456 2859 
Q 2741 2859 2887 2984 
Q 3034 3109 3034 3353 
Q 3034 3594 2887 3720 
Q 2741 3847 2456 3847 
L 1791 3847 
L 1791 2859 
L 2456 2859 
z
M 2497 819 
Q 2859 819 3042 972 
Q 3225 1125 3225 1434 
Q 3225 1738 3044 1889 
Q 2863 2041 2497 2041 
L 1791 2041 
L 1791 819 
L 2497 819 
z
M 3616 2497 
Q 4003 2384 4215 2081 
Q 4428 1778 4428 1338 
Q 4428 663 3972 331 
Q 3516 0 2584 0 
L 588 0 
L 588 4666 
L 2394 4666 
Q 3366 4666 3802 4372 
Q 4238 4078 4238 3431 
Q 4238 3091 4078 2852 
Q 3919 2613 3616 2497 
z
" transform="scale(0.015625)"/>
      <path id="DejaVuSans-Bold-6e" d="M 4056 2131 
L 4056 0 
L 2931 0 
L 2931 347 
L 2931 1631 
Q 2931 2084 2911 2256 
Q 2891 2428 2841 2509 
Q 2775 2619 2662 2680 
Q 2550 2741 2406 2741 
Q 2056 2741 1856 2470 
Q 1656 2200 1656 1722 
L 1656 0 
L 538 0 
L 538 3500 
L 1656 3500 
L 1656 2988 
Q 1909 3294 2193 3439 
Q 2478 3584 2822 3584 
Q 3428 3584 3742 3212 
Q 4056 2841 4056 2131 
z
" transform="scale(0.015625)"/>
      <path id="DejaVuSans-Bold-29" d="M 513 -844 
Q 913 -100 1113 609 
Q 1313 1319 1313 2009 
Q 1313 2700 1113 3408 
Q 913 4116 513 4856 
L 1441 4856 
Q 1916 4091 2145 3389 
Q 2375 2688 2375 2003 
Q 2375 1319 2147 623 
Q 1919 -72 1441 -844 
L 513 -844 
z
" transform="scale(0.015625)"/>
      <path id="DejaVuSans-Bold-2014" d="M 344 2156 
L 6056 2156 
L 6056 1350 
L 344 1350 
L 344 2156 
z
" transform="scale(0.015625)"/>
      <path id="DejaVuSans-Bold-79" d="M 78 3500 
L 1197 3500 
L 2138 1125 
L 2938 3500 
L 4056 3500 
L 2584 -331 
Q 2363 -916 2067 -1148 
Q 1772 -1381 1288 -1381 
L 641 -1381 
L 641 -647 
L 991 -647 
Q 1275 -647 1404 -556 
Q 1534 -466 1606 -231 
L 1638 -134 
L 78 3500 
z
" transform="scale(0.015625)"/>
      <path id="DejaVuSans-Bold-2c" d="M 653 1209 
L 1778 1209 
L 1778 256 
L 1006 -909 
L 341 -909 
L 653 256 
L 653 1209 
z
" transform="scale(0.015625)"/>
      <path id="DejaVuSans-Bold-76" d="M 97 3500 
L 1216 3500 
L 2088 1081 
L 2956 3500 
L 4078 3500 
L 2700 0 
L 1472 0 
L 97 3500 
z
" transform="scale(0.015625)"/>
      <path id="DejaVuSans-Bold-63" d="M 3366 3391 
L 3366 2478 
Q 3138 2634 2908 2709 
Q 2678 2784 2431 2784 
Q 1963 2784 1702 2511 
Q 1441 2238 1441 1747 
Q 1441 1256 1702 982 
Q 1963 709 2431 709 
Q 2694 709 2930 787 
Q 3166 866 3366 1019 
L 3366 103 
Q 3103 6 2833 -42 
Q 2563 -91 2291 -91 
Q 1344 -91 809 395 
Q 275 881 275 1747 
Q 275 2613 809 3098 
Q 1344 3584 2291 3584 
Q 2566 3584 2833 3536 
Q 3100 3488 3366 3391 
z
" transform="scale(0.015625)"/>
     </defs>
     <use xlink:href="#DejaVuSans-Bold-4a"/>
     <use xlink:href="#DejaVuSans-Bold-61" transform="translate(37.207031 0)"/>
     <use xlink:href="#DejaVuSans-Bold-7a" transform="translate(104.6875 0)"/>
     <use xlink:href="#DejaVuSans-Bold-7a" transform="translate(162.890625 0)"/>
     <use xlink:href="#DejaVuSans-Bold-20" transform="translate(221.09375 0)"/>
     <use xlink:href="#DejaVuSans-Bold-6c" transform="translate(255.908203 0)"/>
     <use xlink:href="#DejaVuSans-Bold-65" transform="translate(290.185547 0)"/>
     <use xlink:href="#DejaVuSans-Bold-61" transform="translate(358.007812 0)"/>
     <use xlink:href="#DejaVuSans-Bold-64" transform="translate(425.488281 0)"/>
     <use xlink:href="#DejaVuSans-Bold-20" transform="translate(497.070312 0)"/>
     <use xlink:href="#DejaVuSans-Bold-73" transform="translate(531.884766 0)"/>
     <use xlink:href="#DejaVuSans-Bold-68" transform="translate(591.40625 0)"/>
     <use xlink:href="#DejaVuSans-Bold-65" transform="translate(662.597656 0)"/>
     <use xlink:href="#DejaVuSans-Bold-65" transform="translate(730.419922 0)"/>
     <use xlink:href="#DejaVuSans-Bold-74" transform="translate(798.242188 0)"/>
     <use xlink:href="#DejaVuSans-Bold-20" transform="translate(846.044922 0)"/>
     <use xlink:href="#DejaVuSans-Bold-28" transform="translate(880.859375 0)"/>
     <use xlink:href="#DejaVuSans-Bold-53" transform="translate(926.5625 0)"/>
     <use xlink:href="#DejaVuSans-Bold-77" transform="translate(998.583984 0)"/>
     <use xlink:href="#DejaVuSans-Bold-65" transform="translate(1090.966797 0)"/>
     <use xlink:href="#DejaVuSans-Bold-65" transform="translate(1158.789062 0)"/>
     <use xlink:href="#DejaVuSans-Bold-74" transform="translate(1226.611328 0)"/>
     <use xlink:href="#DejaVuSans-Bold-20" transform="translate(1274.414062 0)"/>
     <use xlink:href="#DejaVuSans-Bold-47" transform="translate(1309.228516 0)"/>
     <use xlink:href="#DejaVuSans-Bold-65" transform="translate(1391.308594 0)"/>
     <use xlink:href="#DejaVuSans-Bold-6f" transform="translate(1459.130859 0)"/>
     <use xlink:href="#DejaVuSans-Bold-72" transform="translate(1527.832031 0)"/>
     <use xlink:href="#DejaVuSans-Bold-67" transform="translate(1577.148438 0)"/>
     <use xlink:href="#DejaVuSans-Bold-69" transform="translate(1648.730469 0)"/>
     <use xlink:href="#DejaVuSans-Bold-61" transform="translate(1683.007812 0)"/>
     <use xlink:href="#DejaVuSans-Bold-20" transform="translate(1750.488281 0)"/>
     <use xlink:href="#DejaVuSans-Bold-42" transform="translate(1785.302734 0)"/>
     <use xlink:href="#DejaVuSans-Bold-72" transform="translate(1861.523438 0)"/>
     <use xlink:href="#DejaVuSans-Bold-6f" transform="translate(1910.839844 0)"/>
     <use xlink:href="#DejaVuSans-Bold-77" transform="translate(1979.541016 0)"/>
     <use xlink:href="#DejaVuSans-Bold-6e" transform="translate(2071.923828 0)"/>
     <use xlink:href="#DejaVuSans-Bold-29" transform="translate(2143.115234 0)"/>
     <use xlink:href="#DejaVuSans-Bold-20" transform="translate(2188.818359 0)"/>
     <use xlink:href="#DejaVuSans-Bold-2014" transform="translate(2223.632812 0)"/>
     <use xlink:href="#DejaVuSans-Bold-20" transform="translate(2323.632812 0)"/>
     <use xlink:href="#DejaVuSans-Bold-6f" transform="translate(2358.447266 0)"/>
     <use xlink:href="#DejaVuSans-Bold-6e" transform="translate(2427.148438 0)"/>
     <use xlink:href="#DejaVuSans-Bold-65" transform="translate(2498.339844 0)"/>
     <use xlink:href="#DejaVuSans-Bold-20" transform="translate(2566.162109 0)"/>
     <use xlink:href="#DejaVuSans-Bold-61" transform="translate(2600.976562 0)"/>
     <use xlink:href="#DejaVuSans-Bold-6e" transform="translate(2668.457031 0)"/>
     <use xlink:href="#DejaVuSans-Bold-61" transform="translate(2739.648438 0)"/>
     <use xlink:href="#DejaVuSans-Bold-6c" transform="translate(2807.128906 0)"/>
     <use xlink:href="#DejaVuSans-Bold-79" transform="translate(2841.40625 0)"/>
     <use xlink:href="#DejaVuSans-Bold-73" transform="translate(2906.591797 0)"/>
     <use xlink:href="#DejaVuSans-Bold-69" transform="translate(2966.113281 0)"/>
     <use xlink:href="#DejaVuSans-Bold-73" transform="translate(3000.390625 0)"/>
     <use xlink:href="#DejaVuSans-Bold-2c" transform="translate(3059.912109 0)"/>
     <use xlink:href="#DejaVuSans-Bold-20" transform="translate(3097.900391 0)"/>
     <use xlink:href="#DejaVuSans-Bold-65" transform="translate(3132.714844 0)"/>
     <use xlink:href="#DejaVuSans-Bold-76" transform="translate(3200.537109 0)"/>
     <use xlink:href="#DejaVuSans-Bold-65" transform="translate(3265.722656 0)"/>
     <use xlink:href="#DejaVuSans-Bold-72" transform="translate(3333.544922 0)"/>
     <use xlink:href="#DejaVuSans-Bold-79" transform="translate(3382.861328 0)"/>
     <use xlink:href="#DejaVuSans-Bold-20" transform="translate(3448.046875 0)"/>
     <use xlink:href="#DejaVuSans-Bold-65" transform="translate(3482.861328 0)"/>
     <use xlink:href="#DejaVuSans-Bold-6e" transform="translate(3550.683594 0)"/>
     <use xlink:href="#DejaVuSans-Bold-63" transform="translate(3621.875 0)"/>
     <use xlink:href="#DejaVuSans-Bold-6f" transform="translate(3681.152344 0)"/>
     <use xlink:href="#DejaVuSans-Bold-64" transform="translate(3749.853516 0)"/>
     <use xlink:href="#DejaVuSans-Bold-69" transform="translate(3821.435547 0)"/>
     <use xlink:href="#DejaVuSans-Bold-6e" transform="translate(3855.712891 0)"/>
     <use xlink:href="#DejaVuSans-Bold-67" transform="translate(3926.904297 0)"/>
    </g>
    <!-- edge = semantic loss on HAMON → format → HAMON round-trip -->
    <g transform="translate(57.562156 31.736687) scale(0.13 -0.13)">
     <defs>
      <path id="DejaVuSans-Bold-3d" d="M 678 3084 
L 4684 3084 
L 4684 2350 
L 678 2350 
L 678 3084 
z
M 678 1663 
L 4684 1663 
L 4684 922 
L 678 922 
L 678 1663 
z
" transform="scale(0.015625)"/>
      <path id="DejaVuSans-Bold-6d" d="M 3781 2919 
Q 3994 3244 4286 3414 
Q 4578 3584 4928 3584 
Q 5531 3584 5847 3212 
Q 6163 2841 6163 2131 
L 6163 0 
L 5038 0 
L 5038 1825 
Q 5041 1866 5042 1909 
Q 5044 1953 5044 2034 
Q 5044 2406 4934 2573 
Q 4825 2741 4581 2741 
Q 4263 2741 4089 2478 
Q 3916 2216 3909 1719 
L 3909 0 
L 2784 0 
L 2784 1825 
Q 2784 2406 2684 2573 
Q 2584 2741 2328 2741 
Q 2006 2741 1831 2477 
Q 1656 2213 1656 1722 
L 1656 0 
L 531 0 
L 531 3500 
L 1656 3500 
L 1656 2988 
Q 1863 3284 2130 3434 
Q 2397 3584 2719 3584 
Q 3081 3584 3359 3409 
Q 3638 3234 3781 2919 
z
" transform="scale(0.015625)"/>
      <path id="DejaVuSans-Bold-48" d="M 588 4666 
L 1791 4666 
L 1791 2888 
L 3566 2888 
L 3566 4666 
L 4769 4666 
L 4769 0 
L 3566 0 
L 3566 1978 
L 1791 1978 
L 1791 0 
L 588 0 
L 588 4666 
z
" transform="scale(0.015625)"/>
      <path id="DejaVuSans-Bold-41" d="M 3419 850 
L 1538 850 
L 1241 0 
L 31 0 
L 1759 4666 
L 3194 4666 
L 4922 0 
L 3713 0 
L 3419 850 
z
M 1838 1716 
L 3116 1716 
L 2478 3572 
L 1838 1716 
z
" transform="scale(0.015625)"/>
      <path id="DejaVuSans-Bold-4d" d="M 588 4666 
L 2119 4666 
L 3181 2169 
L 4250 4666 
L 5778 4666 
L 5778 0 
L 4641 0 
L 4641 3413 
L 3566 897 
L 2803 897 
L 1728 3413 
L 1728 0 
L 588 0 
L 588 4666 
z
" transform="scale(0.015625)"/>
      <path id="DejaVuSans-Bold-4f" d="M 2719 3878 
Q 2169 3878 1866 3472 
Q 1563 3066 1563 2328 
Q 1563 1594 1866 1187 
Q 2169 781 2719 781 
Q 3272 781 3575 1187 
Q 3878 1594 3878 2328 
Q 3878 3066 3575 3472 
Q 3272 3878 2719 3878 
z
M 2719 4750 
Q 3844 4750 4481 4106 
Q 5119 3463 5119 2328 
Q 5119 1197 4481 553 
Q 3844 -91 2719 -91 
Q 1597 -91 958 553 
Q 319 1197 319 2328 
Q 319 3463 958 4106 
Q 1597 4750 2719 4750 
z
" transform="scale(0.015625)"/>
      <path id="DejaVuSans-Bold-4e" d="M 588 4666 
L 1931 4666 
L 3628 1466 
L 3628 4666 
L 4769 4666 
L 4769 0 
L 3425 0 
L 1728 3200 
L 1728 0 
L 588 0 
L 588 4666 
z
" transform="scale(0.015625)"/>
      <path id="DejaVuSans-Bold-2192" d="M 5050 2225 
L 5050 1788 
L 3822 559 
L 3369 1013 
L 3988 1631 
L 366 1631 
L 366 2381 
L 3988 2381 
L 3369 3000 
L 3822 3453 
L 5050 2225 
z
" transform="scale(0.015625)"/>
      <path id="DejaVuSans-Bold-66" d="M 2841 4863 
L 2841 4128 
L 2222 4128 
Q 1984 4128 1890 4042 
Q 1797 3956 1797 3744 
L 1797 3500 
L 2753 3500 
L 2753 2700 
L 1797 2700 
L 1797 0 
L 678 0 
L 678 2700 
L 122 2700 
L 122 3500 
L 678 3500 
L 678 3744 
Q 678 4316 997 4589 
Q 1316 4863 1984 4863 
L 2841 4863 
z
" transform="scale(0.015625)"/>
      <path id="DejaVuSans-Bold-75" d="M 500 1363 
L 500 3500 
L 1625 3500 
L 1625 3150 
Q 1625 2866 1622 2436 
Q 1619 2006 1619 1863 
Q 1619 1441 1641 1255 
Q 1663 1069 1716 984 
Q 1784 875 1895 815 
Q 2006 756 2150 756 
Q 2500 756 2700 1025 
Q 2900 1294 2900 1772 
L 2900 3500 
L 4019 3500 
L 4019 0 
L 2900 0 
L 2900 506 
Q 2647 200 2364 54 
Q 2081 -91 1741 -91 
Q 1134 -91 817 281 
Q 500 653 500 1363 
z
" transform="scale(0.015625)"/>
      <path id="DejaVuSans-Bold-2d" d="M 347 2297 
L 2309 2297 
L 2309 1388 
L 347 1388 
L 347 2297 
z
" transform="scale(0.015625)"/>
      <path id="DejaVuSans-Bold-70" d="M 1656 506 
L 1656 -1331 
L 538 -1331 
L 538 3500 
L 1656 3500 
L 1656 2988 
Q 1888 3294 2169 3439 
Q 2450 3584 2816 3584 
Q 3463 3584 3878 3070 
Q 4294 2556 4294 1747 
Q 4294 938 3878 423 
Q 3463 -91 2816 -91 
Q 2450 -91 2169 54 
Q 1888 200 1656 506 
z
M 2400 2772 
Q 2041 2772 1848 2508 
Q 1656 2244 1656 1747 
Q 1656 1250 1848 986 
Q 2041 722 2400 722 
Q 2759 722 2948 984 
Q 3138 1247 3138 1747 
Q 3138 2247 2948 2509 
Q 2759 2772 2400 2772 
z
" transform="scale(0.015625)"/>
     </defs>
     <use xlink:href="#DejaVuSans-Bold-65"/>
     <use xlink:href="#DejaVuSans-Bold-64" transform="translate(67.822266 0)"/>
     <use xlink:href="#DejaVuSans-Bold-67" transform="translate(139.404297 0)"/>
     <use xlink:href="#DejaVuSans-Bold-65" transform="translate(210.986328 0)"/>
     <use xlink:href="#DejaVuSans-Bold-20" transform="translate(278.808594 0)"/>
     <use xlink:href="#DejaVuSans-Bold-3d" transform="translate(313.623047 0)"/>
     <use xlink:href="#DejaVuSans-Bold-20" transform="translate(397.412109 0)"/>
     <use xlink:href="#DejaVuSans-Bold-73" transform="translate(432.226562 0)"/>
     <use xlink:href="#DejaVuSans-Bold-65" transform="translate(491.748047 0)"/>
     <use xlink:href="#DejaVuSans-Bold-6d" transform="translate(559.570312 0)"/>
     <use xlink:href="#DejaVuSans-Bold-61" transform="translate(663.769531 0)"/>
     <use xlink:href="#DejaVuSans-Bold-6e" transform="translate(731.25 0)"/>
     <use xlink:href="#DejaVuSans-Bold-74" transform="translate(802.441406 0)"/>
     <use xlink:href="#DejaVuSans-Bold-69" transform="translate(850.244141 0)"/>
     <use xlink:href="#DejaVuSans-Bold-63" transform="translate(884.521484 0)"/>
     <use xlink:href="#DejaVuSans-Bold-20" transform="translate(943.798828 0)"/>
     <use xlink:href="#DejaVuSans-Bold-6c" transform="translate(978.613281 0)"/>
     <use xlink:href="#DejaVuSans-Bold-6f" transform="translate(1012.890625 0)"/>
     <use xlink:href="#DejaVuSans-Bold-73" transform="translate(1081.591797 0)"/>
     <use xlink:href="#DejaVuSans-Bold-73" transform="translate(1141.113281 0)"/>
     <use xlink:href="#DejaVuSans-Bold-20" transform="translate(1200.634766 0)"/>
     <use xlink:href="#DejaVuSans-Bold-6f" transform="translate(1235.449219 0)"/>
     <use xlink:href="#DejaVuSans-Bold-6e" transform="translate(1304.150391 0)"/>
     <use xlink:href="#DejaVuSans-Bold-20" transform="translate(1375.341797 0)"/>
     <use xlink:href="#DejaVuSans-Bold-48" transform="translate(1410.15625 0)"/>
     <use xlink:href="#DejaVuSans-Bold-41" transform="translate(1493.847656 0)"/>
     <use xlink:href="#DejaVuSans-Bold-4d" transform="translate(1571.240234 0)"/>
     <use xlink:href="#DejaVuSans-Bold-4f" transform="translate(1670.751953 0)"/>
     <use xlink:href="#DejaVuSans-Bold-4e" transform="translate(1755.761719 0)"/>
     <use xlink:href="#DejaVuSans-Bold-20" transform="translate(1839.453125 0)"/>
     <use xlink:href="#DejaVuSans-Bold-2192" transform="translate(1874.267578 0)"/>
     <use xlink:href="#DejaVuSans-Bold-20" transform="translate(1958.056641 0)"/>
     <use xlink:href="#DejaVuSans-Bold-66" transform="translate(1992.871094 0)"/>
     <use xlink:href="#DejaVuSans-Bold-6f" transform="translate(2036.376953 0)"/>
     <use xlink:href="#DejaVuSans-Bold-72" transform="translate(2105.078125 0)"/>
     <use xlink:href="#DejaVuSans-Bold-6d" transform="translate(2154.394531 0)"/>
     <use xlink:href="#DejaVuSans-Bold-61" transform="translate(2258.59375 0)"/>
     <use xlink:href="#DejaVuSans-Bold-74" transform="translate(2326.074219 0)"/>
     <use xlink:href="#DejaVuSans-Bold-20" transform="translate(2373.876953 0)"/>
     <use xlink:href="#DejaVuSans-Bold-2192" transform="translate(2408.691406 0)"/>
     <use xlink:href="#DejaVuSans-Bold-20" transform="translate(2492.480469 0)"/>
     <use xlink:href="#DejaVuSans-Bold-48" transform="translate(2527.294922 0)"/>
     <use xlink:href="#DejaVuSans-Bold-41" transform="translate(2610.986328 0)"/>
     <use xlink:href="#DejaVuSans-Bold-4d" transform="translate(2688.378906 0)"/>
     <use xlink:href="#DejaVuSans-Bold-4f" transform="translate(2787.890625 0)"/>
     <use xlink:href="#DejaVuSans-Bold-4e" transform="translate(2872.900391 0)"/>
     <use xlink:href="#DejaVuSans-Bold-20" transform="translate(2956.591797 0)"/>
     <use xlink:href="#DejaVuSans-Bold-72" transform="translate(2991.40625 0)"/>
     <use xlink:href="#DejaVuSans-Bold-6f" transform="translate(3040.722656 0)"/>
     <use xlink:href="#DejaVuSans-Bold-75" transform="translate(3109.423828 0)"/>
     <use xlink:href="#DejaVuSans-Bold-6e" transform="translate(3180.615234 0)"/>
     <use xlink:href="#DejaVuSans-Bold-64" transform="translate(3251.806641 0)"/>
     <use xlink:href="#DejaVuSans-Bold-2d" transform="translate(3323.388672 0)"/>
     <use xlink:href="#DejaVuSans-Bold-74" transform="translate(3364.892578 0)"/>
     <use xlink:href="#DejaVuSans-Bold-72" transform="translate(3412.695312 0)"/>
     <use xlink:href="#DejaVuSans-Bold-69" transform="translate(3462.011719 0)"/>
     <use xlink:href="#DejaVuSans-Bold-70" transform="translate(3496.289062 0)"/>
    </g>
   </g>
   <g id="text_13">
    <!-- DCML -->
    <g style="fill: #222222" transform="translate(274.28907 126.066342) scale(0.095 -0.095)">
     <defs>
      <path id="DejaVuSans-Bold-44" d="M 1791 3756 
L 1791 909 
L 2222 909 
Q 2959 909 3348 1275 
Q 3738 1641 3738 2338 
Q 3738 3031 3350 3393 
Q 2963 3756 2222 3756 
L 1791 3756 
z
M 588 4666 
L 1856 4666 
Q 2919 4666 3439 4514 
Q 3959 4363 4331 4000 
Q 4659 3684 4818 3271 
Q 4978 2859 4978 2338 
Q 4978 1809 4818 1395 
Q 4659 981 4331 666 
Q 3956 303 3431 151 
Q 2906 0 1856 0 
L 588 0 
L 588 4666 
z
" transform="scale(0.015625)"/>
      <path id="DejaVuSans-Bold-43" d="M 4288 256 
Q 3956 84 3597 -3 
Q 3238 -91 2847 -91 
Q 1681 -91 1000 561 
Q 319 1213 319 2328 
Q 319 3447 1000 4098 
Q 1681 4750 2847 4750 
Q 3238 4750 3597 4662 
Q 3956 4575 4288 4403 
L 4288 3438 
Q 3953 3666 3628 3772 
Q 3303 3878 2944 3878 
Q 2300 3878 1931 3465 
Q 1563 3053 1563 2328 
Q 1563 1606 1931 1193 
Q 2300 781 2944 781 
Q 3303 781 3628 887 
Q 3953 994 4288 1222 
L 4288 256 
z
" transform="scale(0.015625)"/>
      <path id="DejaVuSans-Bold-4c" d="M 588 4666 
L 1791 4666 
L 1791 909 
L 3903 909 
L 3903 0 
L 588 0 
L 588 4666 
z
" transform="scale(0.015625)"/>
     </defs>
     <use xlink:href="#DejaVuSans-Bold-44"/>
     <use xlink:href="#DejaVuSans-Bold-43" transform="translate(83.007812 0)"/>
     <use xlink:href="#DejaVuSans-Bold-4d" transform="translate(156.396484 0)"/>
     <use xlink:href="#DejaVuSans-Bold-4c" transform="translate(255.908203 0)"/>
    </g>
   </g>
   <g id="text_14">
    <!-- −14 -->
    <g style="fill: #d62728" transform="translate(281.030125 140.836723) scale(0.08 -0.08)">
     <defs>
      <path id="DejaVuSans-2212" d="M 678 2272 
L 4684 2272 
L 4684 1741 
L 678 1741 
L 678 2272 
z
" transform="scale(0.015625)"/>
      <path id="DejaVuSans-31" d="M 794 531 
L 1825 531 
L 1825 4091 
L 703 3866 
L 703 4441 
L 1819 4666 
L 2450 4666 
L 2450 531 
L 3481 531 
L 3481 0 
L 794 0 
L 794 531 
z
" transform="scale(0.015625)"/>
      <path id="DejaVuSans-34" d="M 2419 4116 
L 825 1625 
L 2419 1625 
L 2419 4116 
z
M 2253 4666 
L 3047 4666 
L 3047 1625 
L 3713 1625 
L 3713 1100 
L 3047 1100 
L 3047 0 
L 2419 0 
L 2419 1100 
L 313 1100 
L 313 1709 
L 2253 4666 
z
" transform="scale(0.015625)"/>
     </defs>
     <use xlink:href="#DejaVuSans-2212"/>
     <use xlink:href="#DejaVuSans-31" transform="translate(83.789062 0)"/>
     <use xlink:href="#DejaVuSans-34" transform="translate(147.412109 0)"/>
    </g>
   </g>
   <g id="text_15">
    <!-- Dezrann -->
    <g style="fill: #222222" transform="translate(372.478344 156.969572) scale(0.095 -0.095)">
     <use xlink:href="#DejaVuSans-Bold-44"/>
     <use xlink:href="#DejaVuSans-Bold-65" transform="translate(83.007812 0)"/>
     <use xlink:href="#DejaVuSans-Bold-7a" transform="translate(150.830078 0)"/>
     <use xlink:href="#DejaVuSans-Bold-72" transform="translate(209.033203 0)"/>
     <use xlink:href="#DejaVuSans-Bold-61" transform="translate(258.349609 0)"/>
     <use xlink:href="#DejaVuSans-Bold-6e" transform="translate(325.830078 0)"/>
     <use xlink:href="#DejaVuSans-Bold-6e" transform="translate(397.021484 0)"/>
    </g>
   </g>
   <g id="text_16">
    <!-- −2 -->
    <g style="fill: #d62728" transform="translate(388.821859 171.739952) scale(0.08 -0.08)">
     <defs>
      <path id="DejaVuSans-32" d="M 1228 531 
L 3431 531 
L 3431 0 
L 469 0 
L 469 531 
Q 828 903 1448 1529 
Q 2069 2156 2228 2338 
Q 2531 2678 2651 2914 
Q 2772 3150 2772 3378 
Q 2772 3750 2511 3984 
Q 2250 4219 1831 4219 
Q 1534 4219 1204 4116 
Q 875 4013 500 3803 
L 500 4441 
Q 881 4594 1212 4672 
Q 1544 4750 1819 4750 
Q 2544 4750 2975 4387 
Q 3406 4025 3406 3419 
Q 3406 3131 3298 2873 
Q 3191 2616 2906 2266 
Q 2828 2175 2409 1742 
Q 1991 1309 1228 531 
z
" transform="scale(0.015625)"/>
     </defs>
     <use xlink:href="#DejaVuSans-2212"/>
     <use xlink:href="#DejaVuSans-32" transform="translate(83.789062 0)"/>
    </g>
   </g>
   <g id="text_17">
    <!-- MEI -->
    <g style="fill: #222222" transform="translate(456.81139 239.867703) scale(0.095 -0.095)">
     <defs>
      <path id="DejaVuSans-Bold-45" d="M 588 4666 
L 3834 4666 
L 3834 3756 
L 1791 3756 
L 1791 2888 
L 3713 2888 
L 3713 1978 
L 1791 1978 
L 1791 909 
L 3903 909 
L 3903 0 
L 588 0 
L 588 4666 
z
" transform="scale(0.015625)"/>
      <path id="DejaVuSans-Bold-49" d="M 588 4666 
L 1791 4666 
L 1791 0 
L 588 0 
L 588 4666 
z
" transform="scale(0.015625)"/>
     </defs>
     <use xlink:href="#DejaVuSans-Bold-4d"/>
     <use xlink:href="#DejaVuSans-Bold-45" transform="translate(99.511719 0)"/>
     <use xlink:href="#DejaVuSans-Bold-49" transform="translate(167.822266 0)"/>
    </g>
   </g>
   <g id="text_18">
    <!-- −1 -->
    <g style="fill: #d62728" transform="translate(460.653499 254.638084) scale(0.08 -0.08)">
     <use xlink:href="#DejaVuSans-2212"/>
     <use xlink:href="#DejaVuSans-31" transform="translate(83.789062 0)"/>
    </g>
   </g>
   <g id="text_19">
    <!-- Harte -->
    <g style="fill: #222222" transform="translate(467.145686 348.441165) scale(0.095 -0.095)">
     <use xlink:href="#DejaVuSans-Bold-48"/>
     <use xlink:href="#DejaVuSans-Bold-61" transform="translate(83.691406 0)"/>
     <use xlink:href="#DejaVuSans-Bold-72" transform="translate(151.171875 0)"/>
     <use xlink:href="#DejaVuSans-Bold-74" transform="translate(200.488281 0)"/>
     <use xlink:href="#DejaVuSans-Bold-65" transform="translate(248.291016 0)"/>
    </g>
   </g>
   <g id="text_20">
    <!-- −10 -->
    <g style="fill: #d62728" transform="translate(473.719006 363.211546) scale(0.08 -0.08)">
     <defs>
      <path id="DejaVuSans-30" d="M 2034 4250 
Q 1547 4250 1301 3770 
Q 1056 3291 1056 2328 
Q 1056 1369 1301 889 
Q 1547 409 2034 409 
Q 2525 409 2770 889 
Q 3016 1369 3016 2328 
Q 3016 3291 2770 3770 
Q 2525 4250 2034 4250 
z
M 2034 4750 
Q 2819 4750 3233 4129 
Q 3647 3509 3647 2328 
Q 3647 1150 3233 529 
Q 2819 -91 2034 -91 
Q 1250 -91 836 529 
Q 422 1150 422 2328 
Q 422 3509 836 4129 
Q 1250 4750 2034 4750 
z
" transform="scale(0.015625)"/>
     </defs>
     <use xlink:href="#DejaVuSans-2212"/>
     <use xlink:href="#DejaVuSans-31" transform="translate(83.789062 0)"/>
     <use xlink:href="#DejaVuSans-30" transform="translate(147.412109 0)"/>
    </g>
   </g>
   <g id="text_21">
    <!-- MusicXML -->
    <g style="fill: #222222" transform="translate(409.798835 448.218652) scale(0.095 -0.095)">
     <defs>
      <path id="DejaVuSans-Bold-58" d="M 3188 2381 
L 4806 0 
L 3553 0 
L 2463 1594 
L 1381 0 
L 122 0 
L 1741 2381 
L 184 4666 
L 1441 4666 
L 2463 3163 
L 3481 4666 
L 4744 4666 
L 3188 2381 
z
" transform="scale(0.015625)"/>
     </defs>
     <use xlink:href="#DejaVuSans-Bold-4d"/>
     <use xlink:href="#DejaVuSans-Bold-75" transform="translate(99.511719 0)"/>
     <use xlink:href="#DejaVuSans-Bold-73" transform="translate(170.703125 0)"/>
     <use xlink:href="#DejaVuSans-Bold-69" transform="translate(230.224609 0)"/>
     <use xlink:href="#DejaVuSans-Bold-63" transform="translate(264.501953 0)"/>
     <use xlink:href="#DejaVuSans-Bold-58" transform="translate(323.779297 0)"/>
     <use xlink:href="#DejaVuSans-Bold-4d" transform="translate(400.878906 0)"/>
     <use xlink:href="#DejaVuSans-Bold-4c" transform="translate(500.390625 0)"/>
    </g>
   </g>
   <g id="text_22">
    <!-- −2 -->
    <g style="fill: #d62728" transform="translate(430.697155 462.989032) scale(0.08 -0.08)">
     <use xlink:href="#DejaVuSans-2212"/>
     <use xlink:href="#DejaVuSans-32" transform="translate(83.789062 0)"/>
    </g>
   </g>
   <g id="text_23">
    <!-- LilyPond -->
    <g style="fill: #222222" transform="translate(321.410841 507.484406) scale(0.095 -0.095)">
     <defs>
      <path id="DejaVuSans-Bold-50" d="M 588 4666 
L 2584 4666 
Q 3475 4666 3951 4270 
Q 4428 3875 4428 3144 
Q 4428 2409 3951 2014 
Q 3475 1619 2584 1619 
L 1791 1619 
L 1791 0 
L 588 0 
L 588 4666 
z
M 1791 3794 
L 1791 2491 
L 2456 2491 
Q 2806 2491 2997 2661 
Q 3188 2831 3188 3144 
Q 3188 3456 2997 3625 
Q 2806 3794 2456 3794 
L 1791 3794 
z
" transform="scale(0.015625)"/>
     </defs>
     <use xlink:href="#DejaVuSans-Bold-4c"/>
     <use xlink:href="#DejaVuSans-Bold-69" transform="translate(63.720703 0)"/>
     <use xlink:href="#DejaVuSans-Bold-6c" transform="translate(97.998047 0)"/>
     <use xlink:href="#DejaVuSans-Bold-79" transform="translate(132.275391 0)"/>
     <use xlink:href="#DejaVuSans-Bold-50" transform="translate(197.460938 0)"/>
     <use xlink:href="#DejaVuSans-Bold-6f" transform="translate(270.751953 0)"/>
     <use xlink:href="#DejaVuSans-Bold-6e" transform="translate(339.453125 0)"/>
     <use xlink:href="#DejaVuSans-Bold-64" transform="translate(410.644531 0)"/>
    </g>
   </g>
   <g id="text_24">
    <!-- −2 -->
    <g style="fill: #d62728" transform="translate(338.420099 522.291896) scale(0.08 -0.08)">
     <use xlink:href="#DejaVuSans-2212"/>
     <use xlink:href="#DejaVuSans-32" transform="translate(83.789062 0)"/>
    </g>
   </g>
   <g id="text_25">
    <!-- ABC -->
    <g style="fill: #222222" transform="translate(223.844526 507.521515) scale(0.095 -0.095)">
     <use xlink:href="#DejaVuSans-Bold-41"/>
     <use xlink:href="#DejaVuSans-Bold-42" transform="translate(77.392578 0)"/>
     <use xlink:href="#DejaVuSans-Bold-43" transform="translate(153.613281 0)"/>
    </g>
   </g>
   <g id="text_26">
    <!-- −2 -->
    <g style="fill: #d62728" transform="translate(228.730151 522.291896) scale(0.08 -0.08)">
     <use xlink:href="#DejaVuSans-2212"/>
     <use xlink:href="#DejaVuSans-32" transform="translate(83.789062 0)"/>
    </g>
   </g>
   <g id="text_27">
    <!-- MuseScore -->
    <g style="fill: #222222" transform="translate(113.128564 448.218652) scale(0.095 -0.095)">
     <use xlink:href="#DejaVuSans-Bold-4d"/>
     <use xlink:href="#DejaVuSans-Bold-75" transform="translate(99.511719 0)"/>
     <use xlink:href="#DejaVuSans-Bold-73" transform="translate(170.703125 0)"/>
     <use xlink:href="#DejaVuSans-Bold-65" transform="translate(230.224609 0)"/>
     <use xlink:href="#DejaVuSans-Bold-53" transform="translate(298.046875 0)"/>
     <use xlink:href="#DejaVuSans-Bold-63" transform="translate(370.068359 0)"/>
     <use xlink:href="#DejaVuSans-Bold-6f" transform="translate(429.345703 0)"/>
     <use xlink:href="#DejaVuSans-Bold-72" transform="translate(498.046875 0)"/>
     <use xlink:href="#DejaVuSans-Bold-65" transform="translate(547.363281 0)"/>
    </g>
   </g>
   <g id="text_28">
    <!-- −2 -->
    <g style="fill: #d62728" transform="translate(136.453095 462.989032) scale(0.08 -0.08)">
     <use xlink:href="#DejaVuSans-2212"/>
     <use xlink:href="#DejaVuSans-32" transform="translate(83.789062 0)"/>
    </g>
   </g>
   <g id="text_29">
    <!-- RomanText -->
    <g style="fill: #222222" transform="translate(67.158705 348.441165) scale(0.095 -0.095)">
     <defs>
      <path id="DejaVuSans-Bold-52" d="M 2297 2597 
Q 2675 2597 2839 2737 
Q 3003 2878 3003 3200 
Q 3003 3519 2839 3656 
Q 2675 3794 2297 3794 
L 1791 3794 
L 1791 2597 
L 2297 2597 
z
M 1791 1766 
L 1791 0 
L 588 0 
L 588 4666 
L 2425 4666 
Q 3347 4666 3776 4356 
Q 4206 4047 4206 3378 
Q 4206 2916 3982 2619 
Q 3759 2322 3309 2181 
Q 3556 2125 3751 1926 
Q 3947 1728 4147 1325 
L 4800 0 
L 3519 0 
L 2950 1159 
Q 2778 1509 2601 1637 
Q 2425 1766 2131 1766 
L 1791 1766 
z
" transform="scale(0.015625)"/>
      <path id="DejaVuSans-Bold-54" d="M 31 4666 
L 4331 4666 
L 4331 3756 
L 2784 3756 
L 2784 0 
L 1581 0 
L 1581 3756 
L 31 3756 
L 31 4666 
z
" transform="scale(0.015625)"/>
      <path id="DejaVuSans-Bold-78" d="M 1422 1791 
L 159 3500 
L 1344 3500 
L 2059 2463 
L 2784 3500 
L 3969 3500 
L 2706 1797 
L 4031 0 
L 2847 0 
L 2059 1106 
L 1281 0 
L 97 0 
L 1422 1791 
z
" transform="scale(0.015625)"/>
     </defs>
     <use xlink:href="#DejaVuSans-Bold-52"/>
     <use xlink:href="#DejaVuSans-Bold-6f" transform="translate(77.001953 0)"/>
     <use xlink:href="#DejaVuSans-Bold-6d" transform="translate(145.703125 0)"/>
     <use xlink:href="#DejaVuSans-Bold-61" transform="translate(249.902344 0)"/>
     <use xlink:href="#DejaVuSans-Bold-6e" transform="translate(317.382812 0)"/>
     <use xlink:href="#DejaVuSans-Bold-54" transform="translate(388.574219 0)"/>
     <use xlink:href="#DejaVuSans-Bold-65" transform="translate(443.537109 0)"/>
     <use xlink:href="#DejaVuSans-Bold-78" transform="translate(511.359375 0)"/>
     <use xlink:href="#DejaVuSans-Bold-74" transform="translate(575.861328 0)"/>
    </g>
   </g>
   <g id="text_30">
    <!-- −56 -->
    <g style="fill: #d62728" transform="translate(88.341244 363.211546) scale(0.08 -0.08)">
     <defs>
      <path id="DejaVuSans-35" d="M 691 4666 
L 3169 4666 
L 3169 4134 
L 1269 4134 
L 1269 2991 
Q 1406 3038 1543 3061 
Q 1681 3084 1819 3084 
Q 2600 3084 3056 2656 
Q 3513 2228 3513 1497 
Q 3513 744 3044 326 
Q 2575 -91 1722 -91 
Q 1428 -91 1123 -41 
Q 819 9 494 109 
L 494 744 
Q 775 591 1075 516 
Q 1375 441 1709 441 
Q 2250 441 2565 725 
Q 2881 1009 2881 1497 
Q 2881 1984 2565 2268 
Q 2250 2553 1709 2553 
Q 1456 2553 1204 2497 
Q 953 2441 691 2322 
L 691 4666 
z
" transform="scale(0.015625)"/>
      <path id="DejaVuSans-36" d="M 2113 2584 
Q 1688 2584 1439 2293 
Q 1191 2003 1191 1497 
Q 1191 994 1439 701 
Q 1688 409 2113 409 
Q 2538 409 2786 701 
Q 3034 994 3034 1497 
Q 3034 2003 2786 2293 
Q 2538 2584 2113 2584 
z
M 3366 4563 
L 3366 3988 
Q 3128 4100 2886 4159 
Q 2644 4219 2406 4219 
Q 1781 4219 1451 3797 
Q 1122 3375 1075 2522 
Q 1259 2794 1537 2939 
Q 1816 3084 2150 3084 
Q 2853 3084 3261 2657 
Q 3669 2231 3669 1497 
Q 3669 778 3244 343 
Q 2819 -91 2113 -91 
Q 1303 -91 875 529 
Q 447 1150 447 2328 
Q 447 3434 972 4092 
Q 1497 4750 2381 4750 
Q 2619 4750 2861 4703 
Q 3103 4656 3366 4563 
z
" transform="scale(0.015625)"/>
     </defs>
     <use xlink:href="#DejaVuSans-2212"/>
     <use xlink:href="#DejaVuSans-35" transform="translate(83.789062 0)"/>
     <use xlink:href="#DejaVuSans-36" transform="translate(147.412109 0)"/>
    </g>
   </g>
   <g id="text_31">
    <!-- Humdrum -->
    <g style="fill: #222222" transform="translate(86.014055 239.867703) scale(0.095 -0.095)">
     <use xlink:href="#DejaVuSans-Bold-48"/>
     <use xlink:href="#DejaVuSans-Bold-75" transform="translate(83.691406 0)"/>
     <use xlink:href="#DejaVuSans-Bold-6d" transform="translate(154.882812 0)"/>
     <use xlink:href="#DejaVuSans-Bold-64" transform="translate(259.082031 0)"/>
     <use xlink:href="#DejaVuSans-Bold-72" transform="translate(330.664062 0)"/>
     <use xlink:href="#DejaVuSans-Bold-75" transform="translate(379.980469 0)"/>
     <use xlink:href="#DejaVuSans-Bold-6d" transform="translate(451.171875 0)"/>
    </g>
   </g>
   <g id="text_32">
    <!-- −9 -->
    <g style="fill: #d62728" transform="translate(106.496751 254.638084) scale(0.08 -0.08)">
     <defs>
      <path id="DejaVuSans-39" d="M 703 97 
L 703 672 
Q 941 559 1184 500 
Q 1428 441 1663 441 
Q 2288 441 2617 861 
Q 2947 1281 2994 2138 
Q 2813 1869 2534 1725 
Q 2256 1581 1919 1581 
Q 1219 1581 811 2004 
Q 403 2428 403 3163 
Q 403 3881 828 4315 
Q 1253 4750 1959 4750 
Q 2769 4750 3195 4129 
Q 3622 3509 3622 2328 
Q 3622 1225 3098 567 
Q 2575 -91 1691 -91 
Q 1453 -91 1209 -44 
Q 966 3 703 97 
z
M 1959 2075 
Q 2384 2075 2632 2365 
Q 2881 2656 2881 3163 
Q 2881 3666 2632 3958 
Q 2384 4250 1959 4250 
Q 1534 4250 1286 3958 
Q 1038 3666 1038 3163 
Q 1038 2656 1286 2365 
Q 1534 2075 1959 2075 
z
" transform="scale(0.015625)"/>
     </defs>
     <use xlink:href="#DejaVuSans-2212"/>
     <use xlink:href="#DejaVuSans-39" transform="translate(83.789062 0)"/>
    </g>
   </g>
   <g id="text_33">
    <!-- iReal Pro -->
    <g style="fill: #222222" transform="translate(160.142766 156.969572) scale(0.095 -0.095)">
     <use xlink:href="#DejaVuSans-Bold-69"/>
     <use xlink:href="#DejaVuSans-Bold-52" transform="translate(34.277344 0)"/>
     <use xlink:href="#DejaVuSans-Bold-65" transform="translate(111.279297 0)"/>
     <use xlink:href="#DejaVuSans-Bold-61" transform="translate(179.101562 0)"/>
     <use xlink:href="#DejaVuSans-Bold-6c" transform="translate(246.582031 0)"/>
     <use xlink:href="#DejaVuSans-Bold-20" transform="translate(280.859375 0)"/>
     <use xlink:href="#DejaVuSans-Bold-50" transform="translate(315.673828 0)"/>
     <use xlink:href="#DejaVuSans-Bold-72" transform="translate(388.964844 0)"/>
     <use xlink:href="#DejaVuSans-Bold-6f" transform="translate(438.28125 0)"/>
    </g>
   </g>
   <g id="text_34">
    <!-- −9 -->
    <g style="fill: #d62728" transform="translate(178.328391 171.739952) scale(0.08 -0.08)">
     <use xlink:href="#DejaVuSans-2212"/>
     <use xlink:href="#DejaVuSans-39" transform="translate(83.789062 0)"/>
    </g>
   </g>
   <g id="patch_35">
    <path d="M 289.472 372.622977 
C 302.895067 372.622977 315.770166 367.289936 325.261707 357.798395 
C 334.753249 348.306854 340.08629 335.431754 340.08629 322.008687 
C 340.08629 308.585621 334.753249 295.710521 325.261707 286.21898 
C 315.770166 276.727439 302.895067 271.394398 289.472 271.394398 
C 276.048933 271.394398 263.173834 276.727439 253.682293 286.21898 
C 244.190751 295.710521 238.85771 308.585621 238.85771 322.008687 
C 238.85771 335.431754 244.190751 348.306854 253.682293 357.798395 
C 263.173834 367.289936 276.048933 372.622977 289.472 372.622977 
z
" clip-path="url(#p48ee57b2e7)" style="fill: #1b9e77; stroke: #ffffff; stroke-width: 3; stroke-linejoin: miter"/>
   </g>
   <g id="text_35">
    <!-- HAMON -->
    <g style="fill: #ffffff" transform="translate(259.421219 320.031702) scale(0.14 -0.14)">
     <use xlink:href="#DejaVuSans-Bold-48"/>
     <use xlink:href="#DejaVuSans-Bold-41" transform="translate(83.691406 0)"/>
     <use xlink:href="#DejaVuSans-Bold-4d" transform="translate(161.083984 0)"/>
     <use xlink:href="#DejaVuSans-Bold-4f" transform="translate(260.595703 0)"/>
     <use xlink:href="#DejaVuSans-Bold-4e" transform="translate(345.605469 0)"/>
    </g>
   </g>
   <g id="text_36">
    <!-- JSON · lossless -->
    <g style="fill: #ffffff" transform="translate(258.510086 338.954432) scale(0.085 -0.085)">
     <defs>
      <path id="DejaVuSans-4a" d="M 628 4666 
L 1259 4666 
L 1259 325 
Q 1259 -519 939 -900 
Q 619 -1281 -91 -1281 
L -331 -1281 
L -331 -750 
L -134 -750 
Q 284 -750 456 -515 
Q 628 -281 628 325 
L 628 4666 
z
" transform="scale(0.015625)"/>
      <path id="DejaVuSans-53" d="M 3425 4513 
L 3425 3897 
Q 3066 4069 2747 4153 
Q 2428 4238 2131 4238 
Q 1616 4238 1336 4038 
Q 1056 3838 1056 3469 
Q 1056 3159 1242 3001 
Q 1428 2844 1947 2747 
L 2328 2669 
Q 3034 2534 3370 2195 
Q 3706 1856 3706 1288 
Q 3706 609 3251 259 
Q 2797 -91 1919 -91 
Q 1588 -91 1214 -16 
Q 841 59 441 206 
L 441 856 
Q 825 641 1194 531 
Q 1563 422 1919 422 
Q 2459 422 2753 634 
Q 3047 847 3047 1241 
Q 3047 1584 2836 1778 
Q 2625 1972 2144 2069 
L 1759 2144 
Q 1053 2284 737 2584 
Q 422 2884 422 3419 
Q 422 4038 858 4394 
Q 1294 4750 2059 4750 
Q 2388 4750 2728 4690 
Q 3069 4631 3425 4513 
z
" transform="scale(0.015625)"/>
      <path id="DejaVuSans-4f" d="M 2522 4238 
Q 1834 4238 1429 3725 
Q 1025 3213 1025 2328 
Q 1025 1447 1429 934 
Q 1834 422 2522 422 
Q 3209 422 3611 934 
Q 4013 1447 4013 2328 
Q 4013 3213 3611 3725 
Q 3209 4238 2522 4238 
z
M 2522 4750 
Q 3503 4750 4090 4092 
Q 4678 3434 4678 2328 
Q 4678 1225 4090 567 
Q 3503 -91 2522 -91 
Q 1538 -91 948 565 
Q 359 1222 359 2328 
Q 359 3434 948 4092 
Q 1538 4750 2522 4750 
z
" transform="scale(0.015625)"/>
      <path id="DejaVuSans-4e" d="M 628 4666 
L 1478 4666 
L 3547 763 
L 3547 4666 
L 4159 4666 
L 4159 0 
L 3309 0 
L 1241 3903 
L 1241 0 
L 628 0 
L 628 4666 
z
" transform="scale(0.015625)"/>
      <path id="DejaVuSans-20" transform="scale(0.015625)"/>
      <path id="DejaVuSans-b7" d="M 684 2619 
L 1344 2619 
L 1344 1825 
L 684 1825 
L 684 2619 
z
" transform="scale(0.015625)"/>
      <path id="DejaVuSans-6c" d="M 603 4863 
L 1178 4863 
L 1178 0 
L 603 0 
L 603 4863 
z
" transform="scale(0.015625)"/>
      <path id="DejaVuSans-6f" d="M 1959 3097 
Q 1497 3097 1228 2736 
Q 959 2375 959 1747 
Q 959 1119 1226 758 
Q 1494 397 1959 397 
Q 2419 397 2687 759 
Q 2956 1122 2956 1747 
Q 2956 2369 2687 2733 
Q 2419 3097 1959 3097 
z
M 1959 3584 
Q 2709 3584 3137 3096 
Q 3566 2609 3566 1747 
Q 3566 888 3137 398 
Q 2709 -91 1959 -91 
Q 1206 -91 779 398 
Q 353 888 353 1747 
Q 353 2609 779 3096 
Q 1206 3584 1959 3584 
z
" transform="scale(0.015625)"/>
      <path id="DejaVuSans-73" d="M 2834 3397 
L 2834 2853 
Q 2591 2978 2328 3040 
Q 2066 3103 1784 3103 
Q 1356 3103 1142 2972 
Q 928 2841 928 2578 
Q 928 2378 1081 2264 
Q 1234 2150 1697 2047 
L 1894 2003 
Q 2506 1872 2764 1633 
Q 3022 1394 3022 966 
Q 3022 478 2636 193 
Q 2250 -91 1575 -91 
Q 1294 -91 989 -36 
Q 684 19 347 128 
L 347 722 
Q 666 556 975 473 
Q 1284 391 1588 391 
Q 1994 391 2212 530 
Q 2431 669 2431 922 
Q 2431 1156 2273 1281 
Q 2116 1406 1581 1522 
L 1381 1569 
Q 847 1681 609 1914 
Q 372 2147 372 2553 
Q 372 3047 722 3315 
Q 1072 3584 1716 3584 
Q 2034 3584 2315 3537 
Q 2597 3491 2834 3397 
z
" transform="scale(0.015625)"/>
      <path id="DejaVuSans-65" d="M 3597 1894 
L 3597 1613 
L 953 1613 
Q 991 1019 1311 708 
Q 1631 397 2203 397 
Q 2534 397 2845 478 
Q 3156 559 3463 722 
L 3463 178 
Q 3153 47 2828 -22 
Q 2503 -91 2169 -91 
Q 1331 -91 842 396 
Q 353 884 353 1716 
Q 353 2575 817 3079 
Q 1281 3584 2069 3584 
Q 2775 3584 3186 3129 
Q 3597 2675 3597 1894 
z
M 3022 2063 
Q 3016 2534 2758 2815 
Q 2500 3097 2075 3097 
Q 1594 3097 1305 2825 
Q 1016 2553 972 2059 
L 3022 2063 
z
" transform="scale(0.015625)"/>
     </defs>
     <use xlink:href="#DejaVuSans-4a"/>
     <use xlink:href="#DejaVuSans-53" transform="translate(29.492188 0)"/>
     <use xlink:href="#DejaVuSans-4f" transform="translate(92.96875 0)"/>
     <use xlink:href="#DejaVuSans-4e" transform="translate(171.679688 0)"/>
     <use xlink:href="#DejaVuSans-20" transform="translate(246.484375 0)"/>
     <use xlink:href="#DejaVuSans-b7" transform="translate(278.271484 0)"/>
     <use xlink:href="#DejaVuSans-20" transform="translate(310.058594 0)"/>
     <use xlink:href="#DejaVuSans-6c" transform="translate(341.845703 0)"/>
     <use xlink:href="#DejaVuSans-6f" transform="translate(369.628906 0)"/>
     <use xlink:href="#DejaVuSans-73" transform="translate(430.810547 0)"/>
     <use xlink:href="#DejaVuSans-73" transform="translate(482.910156 0)"/>
     <use xlink:href="#DejaVuSans-6c" transform="translate(535.009766 0)"/>
     <use xlink:href="#DejaVuSans-65" transform="translate(562.792969 0)"/>
     <use xlink:href="#DejaVuSans-73" transform="translate(624.316406 0)"/>
     <use xlink:href="#DejaVuSans-73" transform="translate(676.416016 0)"/>
    </g>
   </g>
  </g>
 </g>
 <defs>
  <clipPath id="p48ee57b2e7">
   <rect x="7.2" y="39.736687" width="564.544" height="564.544"/>
  </clipPath>
 </defs>
</svg>
